# xmcd
#
# Track frame offsets: 
#        150
#        16244
#        30914
#        49993
#        64365
#        85915
#        105790
#        121141
#        142755
#        160540
#        179707
#        202080
#
# Disc length: 2967 seconds
#
# Revision: 3
# Processed by: cddbd v1.5.2PL0 Copyright (c) Steve Scherf et al.
# Submitted via: ExactAudioCopy v1.0b3
#
DISCID=940b950c
DTITLE=倉木麻衣 - ONE LIFE
DYEAR=2008
DGENRE=J-POP
TTITLE0=One Life
TTITLE1=I Like it Like that
TTITLE2=one for me
TTITLE3=Born to be Free
TTITLE4=白い雪
TTITLE5=Silent love ～open my heart～
TTITLE6=everything
TTITLE7=Season of love
TTITLE8=secret roses
TTITLE9=Wonderland
TTITLE10=BE WITH U
TTITLE11=Over The Rainbow ※Bonus Track
EXTD=
EXTT0=
EXTT1=
EXTT2=
EXTT3=
EXTT4=
EXTT5=
EXTT6=
EXTT7=
EXTT8=
EXTT9=
EXTT10=
EXTT11=
PLAYORDER=
